#N canvas 529 45 1042 762 10;
#X obj 142 462 dac~ 1 2;
#X obj 142 291 cycle~ 10;
#X obj 142 416 *~ 0.1;
#X floatatom 175 387 5 0 0 0 - - -;
#X floatatom 163 257 5 0 0 0 - - -;
#X floatatom 142 149 5 0 0 0 - - -;
#X floatatom 157 218 10 0 0 0 - - -;
#X obj 142 184 / 60;
#X obj 142 68 loadbang;
#X msg 142 105 70;
#X obj 212 291 loadbang;
#X msg 175 330 0.1;
#X msg 253 332 0.5;
#X msg 294 331 0.75;
#X msg 210 331 0.25;
#X msg 341 333 1;
#X msg 380 333 0;
#X connect 1 0 2 0;
#X connect 2 0 0 0;
#X connect 3 0 2 1;
#X connect 4 0 1 0;
#X connect 5 0 7 0;
#X connect 7 0 6 0;
#X connect 7 0 1 0;
#X connect 8 0 9 0;
#X connect 9 0 5 0;
#X connect 10 0 14 0;
#X connect 11 0 3 0;
#X connect 12 0 3 0;
#X connect 13 0 3 0;
#X connect 14 0 3 0;
#X connect 15 0 3 0;
#X connect 16 0 3 0;
